<svg width="17" height="24" viewBox="0 0 17 24" fill="none" xmlns="http://www.w3.org/2000/svg">
<path d="M8.5 19.5C10.6217 19.5 12.6566 18.6571 14.1569 17.1569C15.6571 15.6566 16.5 13.6217 16.5 11.5C16.5 9.37827 15.6571 7.34344 14.1569 5.84315C12.6566 4.34285 10.6217 3.5 8.5 3.5C6.37827 3.5 4.34344 4.34285 2.84315 5.84315C1.34285 7.34344 0.5 9.37827 0.5 11.5C0.5 13.6217 1.34285 15.6566 2.84315 17.1569C4.34344 18.6571 6.37827 19.5 8.5 19.5ZM12.0312 10.0312L8.03125 14.0312C7.7375 14.325 7.2625 14.325 6.97188 14.0312L4.97188 12.0312C4.67813 11.7375 4.67813 11.2625 4.97188 10.9719C5.26562 10.6813 5.74062 10.6781 6.03125 10.9719L7.5 12.4406L10.9688 8.96875C11.2625 8.675 11.7375 8.675 12.0281 8.96875C12.3187 9.2625 12.3219 9.7375 12.0281 10.0281L12.0312 10.0312Z" fill="#254A76"/>
</svg>
