<svg width="162" height="60" viewBox="0 0 162 60" fill="none" xmlns="http://www.w3.org/2000/svg">
<g clip-path="url(#clip0_399_221)">
<g clip-path="url(#clip1_399_221)">
<g clip-path="url(#clip2_399_221)">
<path d="M36.6343 53.2174V53.4553C35.8969 54.4544 35.778 55.4535 35.778 56.3099C35.8017 56.5478 35.7066 56.6667 35.5163 56.6667C35.3022 56.6667 35.207 56.5478 35.207 56.3099C35.207 55.5487 35.4687 54.8112 36.1586 53.8835V53.7883H34.8978C34.7788 53.7883 34.6837 53.8597 34.6361 53.9548H34.4934L34.5647 53.2174H36.6343ZM26.6194 53.2174V56.4051L27.0238 56.4526V56.6429H25.6202V56.4526L26.0246 56.4051V53.7883H25.6202V53.5504C25.8819 53.5266 26.1674 53.4315 26.2863 53.2174H26.6194ZM29.1409 53.1698C29.807 53.1698 30.2114 53.5266 30.2114 53.931C30.2352 54.2879 29.9735 54.5495 29.6167 54.6685L29.6405 54.7399C30.0211 54.954 30.378 55.2394 30.378 55.6914C30.378 56.2147 29.926 56.6429 29.2123 56.6429C28.4749 56.6429 27.9991 56.2623 27.9991 55.8341C27.9991 55.4535 28.2846 55.1681 28.689 55.0491L28.6652 54.9302C28.3559 54.7399 28.0705 54.4544 28.0705 54.0738C28.0705 53.5742 28.4749 53.1698 29.1409 53.1698ZM32.6379 53.146C33.1612 53.146 33.5418 53.4077 33.5418 53.7407C33.518 53.9786 33.3991 54.0738 33.2564 54.0738C33.1374 54.0738 33.0185 53.9548 32.9947 53.8121C32.9947 53.6932 33.0423 53.598 33.0661 53.4553C32.9947 53.4077 32.9233 53.4077 32.8044 53.4077C32.2335 53.4077 32.0194 54.05 32.0194 55.0967H32.0669C32.1621 54.7161 32.4476 54.5258 32.7568 54.5258C33.3277 54.5258 33.6608 54.954 33.6608 55.4773C33.6608 56.1434 33.185 56.6429 32.4951 56.6429C31.6387 56.6429 31.3057 55.8341 31.3057 55.2156C31.3057 53.931 31.9004 53.146 32.6379 53.146ZM28.9268 55.0729C28.6414 55.2156 28.5224 55.5011 28.5224 55.7866C28.5224 56.1672 28.7128 56.4288 29.2123 56.4288C29.6167 56.4288 29.7594 56.1672 29.7594 55.8341C29.7594 55.4773 29.4026 55.2632 29.0934 55.1443C29.0458 55.1205 28.9744 55.0967 28.9268 55.0729ZM32.5189 54.8588C32.3048 54.8588 32.0907 55.0253 31.9956 55.3346C32.0194 55.8103 32.0907 56.4051 32.5665 56.4051C32.8995 56.4051 32.9947 56.072 32.9947 55.5962C32.9947 55.1443 32.852 54.8588 32.5189 54.8588ZM29.1647 53.3839C28.8317 53.3839 28.7128 53.6218 28.7128 53.931C28.7128 54.2641 29.022 54.4782 29.2837 54.5733C29.3313 54.5971 29.3788 54.6209 29.4264 54.6447C29.6167 54.502 29.7119 54.2403 29.7119 53.9786C29.7119 53.6456 29.5691 53.3839 29.1647 53.3839ZM66.4176 41.5372L66.4414 41.9654L65.3947 42.0844V48.5548C65.3947 50.7672 63.8009 51.8377 61.5172 51.8377C59.6617 51.8377 57.8775 50.791 57.8775 48.6976V42.0844L56.807 41.9654L56.8308 41.5372L58.496 41.5848L60.2802 41.5372V41.9654L59.2572 42.0844V48.65C59.2572 50.2676 60.3039 51.0288 61.9691 51.0288C63.6343 51.0288 64.7048 50.2438 64.7048 48.5073V42.0844L63.6581 41.9654V41.5372L65.0854 41.5848L66.4176 41.5372ZM116.231 41.3945C117.301 41.3945 118.134 41.9178 118.443 42.2747L118.681 41.5134H119.181V44.2253H118.633C118.419 42.6553 117.42 41.9178 116.278 41.9178C114.994 41.9178 114.399 42.6077 114.399 43.6544C114.399 44.7249 115.684 45.1531 116.921 45.8192C118.705 46.7469 119.585 47.6509 119.585 48.8641C119.585 50.7434 118.134 51.7901 116.492 51.7901C115.351 51.7901 114.542 51.3381 114.018 50.8148L113.781 51.6473H113.352V48.7927L113.923 48.7689C114.161 50.4341 114.851 51.2429 116.469 51.2429C117.658 51.2429 118.419 50.5055 118.419 49.3874C118.419 48.1504 117.063 47.6033 116.064 47.0799C113.947 46.0808 113.329 45.1055 113.329 43.9636C113.329 42.3698 114.851 41.3945 116.231 41.3945ZM107.025 41.561C109.522 41.561 110.855 42.6077 110.855 44.035C110.855 45.4623 109.808 46.0808 108.381 46.3663L108.428 46.6042C110.022 46.6518 110.736 47.6033 110.736 48.7689V49.435C110.736 50.672 110.997 51.1478 111.426 51.1478C111.663 51.1478 111.83 50.9813 111.973 50.6482L112.234 50.8385C111.925 51.4095 111.521 51.7663 110.807 51.7663C109.832 51.7663 109.38 50.8623 109.38 49.4588V48.7689C109.38 47.9125 108.904 46.8421 107.857 46.8421H105.692V51.1478L106.739 51.3143V51.6949L105.05 51.6711L103.266 51.6949V51.3143L104.337 51.1478V42.0844L103.266 41.9654L103.29 41.561H107.025ZM36.8246 33.0447H35.8731V32.7592H34.9691V33.0447H34.0176V32.7592H33.1136V33.0447H32.1859V32.7592H31.2581V33.0447H30.3304V32.7592H29.3788V33.0447H28.4511V32.7592H27.5233V33.0447H26.5956V32.7592H25.6678V33.0447H24.7401V32.7592H23.8123V33.0447H22.9321V33.3302H22.8846V32.7592H22.9193L22.2423 31.5222H22.9321V29.3575L22.9604 29.3246C23.0592 29.2143 23.1046 29.2088 23.17 29.1434C23.2176 29.0958 22.9797 29.0482 23.0749 28.8817C23.1938 28.6438 22.9559 28.5487 22.9559 28.4535C22.9559 28.3108 23.0987 28.3108 23.1938 28.1681C23.2414 28.0729 23.0749 27.8112 23.2652 27.7874L23.2915 27.798C23.4156 27.8651 23.2918 28.1009 23.3365 28.1681C23.4317 28.3108 23.5744 28.3108 23.5744 28.4535C23.5744 28.5487 23.3365 28.6676 23.4555 28.8817C23.5269 29.0244 23.3128 29.0958 23.3603 29.1434C23.4317 29.2147 23.4793 29.191 23.5982 29.3575H25.644V27.3592L26.096 27.359V27.0262L26.3577 20.1751L26.5004 19.8658L28.8555 19.0808L32.3048 18.9857C32.3048 19.0095 34.9454 19.6042 34.9454 19.6042C34.9454 19.628 35.6828 20.2703 35.6828 20.2703L35.8255 20.5319L36.0365 27.359L36.5154 27.3592V29.3575H38.0141C38.133 29.2147 38.1806 29.2147 38.252 29.1434C38.2995 29.0958 38.0617 29.0482 38.1568 28.8817C38.2757 28.6438 38.0379 28.5487 38.0379 28.4535C38.0379 28.3108 38.1806 28.3108 38.2757 28.1681C38.3233 28.0729 38.1568 27.8112 38.3471 27.7874L38.3734 27.798C38.4975 27.8651 38.3737 28.1009 38.4185 28.1681C38.5136 28.3108 38.6564 28.3108 38.6564 28.4535C38.6564 28.5487 38.4185 28.6676 38.5374 28.8817C38.6088 29.0244 38.3947 29.0958 38.4423 29.1434C38.5136 29.2147 38.5612 29.191 38.6802 29.3575V31.5222H39.37L38.6802 32.783L38.6799 32.8511L38.6802 33.0447H38.6797L38.6564 44.0826H39.822L39.1321 45.3434V47.6509H43.1286C43.2476 47.4844 43.2951 47.4844 43.3665 47.413C43.4141 47.3654 43.2 47.3178 43.2713 47.1513C43.3903 46.9134 43.1524 46.8183 43.1524 46.7231C43.1524 46.5804 43.2951 46.5804 43.3903 46.4377C43.4379 46.3663 43.2713 46.0808 43.4617 46.057L43.4879 46.0676C43.612 46.1347 43.4882 46.3705 43.533 46.4377C43.6282 46.5804 43.7709 46.5804 43.7709 46.7231C43.7709 46.8183 43.533 46.9372 43.652 47.1513C43.7233 47.294 43.5092 47.3654 43.5568 47.413C43.6282 47.5081 43.6757 47.4844 43.7947 47.6509V47.6747H44.5321L43.8423 48.9355V51.7187H17.889V48.9355L17.1991 47.6747H17.889C18.0079 47.5081 18.0555 47.5081 18.1268 47.4368C18.1744 47.3892 17.9603 47.3416 18.0317 47.1751C18.1506 46.9372 17.9128 46.8421 17.9128 46.7469C17.9128 46.6042 18.0555 46.6042 18.1506 46.4614C18.1982 46.3663 18.0317 46.1046 18.222 46.0808L18.2483 46.0914C18.3724 46.1585 18.2486 46.3943 18.2934 46.4614C18.3885 46.6042 18.5313 46.6042 18.5313 46.7469C18.5313 46.8421 18.2934 46.961 18.4123 47.1751C18.4837 47.3178 18.2696 47.3892 18.3172 47.4368C18.3885 47.5081 18.4361 47.4844 18.555 47.6509H22.4802V45.3434L21.7665 44.0826H22.9321V33.3302H38.6564V33.0447H37.7524V32.7592H36.8246V33.0447ZM144.016 41.5134V41.9178L143.112 42.1081L140.138 47.4844V51.1478L141.185 51.3381V51.7187L139.472 51.6949L137.736 51.7187V51.3381L138.782 51.1716V47.4844L135.785 42.1081L134.881 41.894V41.5134L136.522 41.5372L138.259 41.5134V41.894L137.355 42.0606V42.2033L139.781 46.7707L142.16 42.2747V42.0844L141.185 41.9178V41.5134L142.826 41.5372L144.016 41.5134ZM124.89 41.561V41.9654L123.867 42.0844V51.124L124.866 51.3143V51.6949L123.201 51.6711L121.417 51.6949V51.3143L122.487 51.1478V42.0844L121.417 41.9654L121.441 41.561L123.201 41.6086L124.89 41.561ZM82.4987 41.561V41.9654L81.4758 42.0844V51.124L82.4749 51.3143V51.6949L80.8097 51.6711L79.0255 51.6949V51.3143L80.096 51.1478V42.0844L79.0255 41.9654L79.0493 41.561L80.8097 41.6086L82.4987 41.561ZM77.6696 41.5372V41.9178L76.6229 42.0844C76.6229 42.0844 76.5078 43.6724 76.504 45.5581L76.5039 51.6711H75.5762L69.4387 43.7496V47.3178C69.4387 49.7681 69.5577 51.124 69.5577 51.124L70.652 51.3143V51.6949L69.1771 51.6711L67.5357 51.6949V51.3143L68.6299 51.1478C68.6299 51.1478 68.7251 49.887 68.7251 47.294V42.8218C68.7251 42.1302 68.2451 42.0479 67.7405 41.973L67.6585 41.9609C67.6175 41.9547 67.5764 41.9484 67.5357 41.9416L67.5594 41.5372L69.6053 41.5848L75.8141 49.7205V45.6051C75.8141 43.702 75.7189 42.1081 75.7189 42.1081L74.4819 41.9178V41.5372L76.0757 41.561L77.6696 41.5372ZM101.006 41.5372L101.054 44.2015H100.507L100.411 43.8685C100.174 42.9645 99.5788 42.1319 98.2229 42.1319H95.9868V46.2949H96.6291C97.652 46.3187 98.4132 46.0333 98.4132 45.2244V44.939H98.8652V48.2218H98.4132V47.9363C98.4132 47.1275 97.6758 46.8421 96.6528 46.8421H96.0106V51.1002H98.6987C99.9832 51.1002 100.84 50.339 101.101 49.4112L101.196 49.0544L101.744 49.0782L101.458 51.6711H95.3683L93.5841 51.6949V51.3143L94.6546 51.1478V42.0844L93.5841 41.9654L93.6079 41.561H101.006V41.5372ZM134.215 41.5372L134.381 44.1777H133.811L133.668 43.7496C133.359 42.8218 132.907 42.1081 131.693 42.1319H130.813V51.1478L131.884 51.2667L131.86 51.6711L130.171 51.6236L128.434 51.6711V51.2667L129.433 51.1478V42.1319H128.458C127.269 42.1081 126.793 42.8218 126.484 43.7496L126.341 44.1777H125.794L125.96 41.5372H134.215ZM92.918 41.5134V41.894L91.9665 42.0844L88.5172 51.6473H87.7797L84.3066 42.0844L83.3313 41.894V41.5134L85.044 41.5372L86.733 41.5134V41.894L85.6863 42.0606L88.4696 49.8632L91.1577 42.0606L90.111 41.894V41.5134L91.6335 41.5372L92.918 41.5134ZM42.9145 48.5548H18.6502L18.9119 48.8403H42.6528L42.9145 48.5548ZM106.929 42.1081H105.692V46.2711H106.62C108.809 46.3187 109.427 45.0817 109.427 44.0588C109.427 43.1311 108.856 42.1081 106.929 42.1081ZM38.4423 45.0579H23.0987L23.2652 45.3434H38.2757L38.4423 45.0579ZM30.9013 35.5425C29.1885 35.5425 27.8088 36.8509 27.8088 38.4923C27.8088 40.1337 29.1885 41.4659 30.9013 41.4421C32.6141 41.4421 33.9938 40.1337 33.9938 38.4923C33.9938 36.8747 32.6141 35.5425 30.9013 35.5425ZM30.8061 36.5416L30.8537 38.302L33.0423 39.4676L30.4731 38.4923L30.8061 36.5416ZM79.4537 21.6262C83.4978 21.6262 86.0432 24.8377 86.0432 29.0482C86.0432 33.2588 83.474 36.4465 79.4537 36.4465C75.4097 36.4465 72.8405 33.2588 72.8405 29.0482C72.8405 24.8377 75.4097 21.6262 79.4537 21.6262ZM124.01 21.8165C127.411 21.8165 129.243 23.2914 129.243 25.361C129.243 27.383 127.816 28.287 125.865 28.6676L125.937 29.0007C128.101 29.072 129.1 30.428 129.1 32.0932V33.0447C129.1 34.8288 129.481 35.4949 130.028 35.4949C130.361 35.4949 130.575 35.257 130.766 34.7813L131.146 35.0429C130.718 35.8518 130.171 36.3513 129.196 36.3513C127.887 36.3513 127.245 35.0667 127.245 33.0447V32.0456C127.245 30.8086 126.603 29.2861 125.152 29.2861H121.655V35.4236L123.129 35.7566V36.3037L120.822 36.2562L118.396 36.3037V35.7566L119.847 35.5425V22.6015L118.372 22.4112L118.396 21.8165H124.01ZM137.403 21.8403C142.018 21.8403 144.682 25.1231 144.682 28.8817C144.682 33.7108 141.518 36.2799 137.403 36.2799H134.5L132.098 36.3275V35.7804L133.525 35.5663V22.6253L132.05 22.435L132.098 21.8403H137.403ZM111.473 21.8165L116.278 35.4949L117.587 35.7566V36.3037L115.255 36.2562L112.9 36.3037V35.7566L114.352 35.5425L113.138 31.9742H107.881C107.144 34.139 106.739 35.5425 106.739 35.5425L108.262 35.7566V36.3037L106.144 36.2562L104.265 36.3037V35.7566L105.478 35.5663C105.478 35.5663 106.359 33.4729 107.191 31.0227L110.379 21.8165H111.473ZM71.3418 21.5548V22.1495L69.9383 22.3399V35.4711L71.3656 35.7328V36.2799L69.0343 36.2324L66.5841 36.2799V35.7328L68.0352 35.4949V29.4526H60.1612V35.4711L61.5885 35.7566V36.3037L59.2572 36.2562L56.7832 36.3037V35.7566L58.2581 35.5187V22.3399L56.7594 22.1495L56.7832 21.5548L59.2097 21.6024L61.5647 21.5548V22.1495L60.1374 22.3399V28.5249H68.0114V22.3399L66.5603 22.1495L66.5841 21.5548L68.9868 21.6024L71.3418 21.5548ZM86.2097 21.8165L88.5647 21.8641L91.1339 21.8403V22.5064L89.5876 22.7205L89.5639 22.9108L92.252 33.1161L95.9392 21.8403H97.1048L101.03 33.1874L103.361 22.887V22.7205L101.529 22.4588V21.8641L103.789 21.9117L105.811 21.8641V22.4826L104.479 22.7681L101.101 36.2799H100.269L96.1295 24.3619L92.1092 36.2799H91.2291V36.2562L87.518 22.7443L86.1859 22.4112L86.2097 21.8165ZM79.4537 22.5302C76.2185 22.5302 75.0766 25.361 75.0766 29.0482C75.0766 32.7355 76.2185 35.5663 79.4537 35.5663C82.689 35.5663 83.8308 32.7592 83.8308 29.0482C83.8308 25.361 82.689 22.5302 79.4537 22.5302ZM137.046 22.6728L135.404 22.6967V35.4473H137.236C141.542 35.5187 142.612 31.8553 142.612 28.9293C142.612 26.1222 141.161 22.6491 137.046 22.6728ZM24.2405 29.7619H23.9788V31.4509H24.2405V29.7619ZM25.0731 29.7619H24.8114V31.4509H25.0731V29.7619ZM25.9057 29.7619H25.644V31.4509H25.9057V29.7619ZM26.7383 29.7619H26.4766V31.4509H26.7383V29.7619ZM27.5709 29.7619H27.3092V31.4509H27.5709V29.7619ZM28.4035 29.7619H28.1418V31.4509H28.4035V29.7619ZM29.2361 29.7619H28.9744V31.4509H29.2361V29.7619ZM30.0687 29.7619H29.807V31.4509H30.0687V29.7619ZM31.7339 29.7619H31.4722V31.4509H31.7339V29.7619ZM32.5665 29.7619H32.3048V31.4509H32.5665V29.7619ZM33.3991 29.7619H33.1374V31.4509H33.3991V29.7619ZM34.2317 29.7619H33.97V31.4509H34.2317V29.7619ZM35.0643 29.7619H34.8026V31.4509H35.0643V29.7619ZM35.8969 29.7619H35.6352V31.4509H35.8969V29.7619ZM37.5621 29.7619H37.3004V31.4509H37.5621V29.7619ZM36.7295 29.7619H36.4678V31.4509H36.7295V29.7619ZM110.522 24.2667L108.238 30.9989H112.805L110.522 24.2667ZM123.985 22.6489L121.702 22.6491V28.5725H123.486C126.484 28.6438 127.316 26.8835 127.316 25.4086C127.316 24.0925 126.55 22.6603 123.985 22.6489ZM36.3013 27.6923H25.7392L25.8581 27.8826H36.2061L36.3013 27.6923ZM28.4749 21.198C28.4749 20.0324 27.0238 20.2227 26.9286 21.7214L26.8335 26.7883L28.4511 26.3363H28.4749V21.198ZM35.207 21.9355C35.207 20.7698 33.9224 19.8183 33.8273 21.2456L33.8511 26.2412L35.326 26.5742L35.207 21.9355ZM31.9956 21.0077C31.9956 19.8421 30.3066 19.6518 30.1876 21.1266L30.0687 26.1698H31.9956V21.0077ZM32.4 17.3205L35.0405 17.9152L35.8017 18.3434V18.3672L36.9436 19.4377L35.8255 20.5081V20.1989L35.0167 19.4614C34.9691 19.4614 32.3286 18.8429 32.3286 18.8429C32.3048 18.8429 28.8317 18.9381 28.8317 18.9381C28.8299 18.9381 28.8137 18.9432 28.7853 18.9525L28.702 18.9804C28.1922 19.1527 26.3545 19.7913 26.3339 19.7707V20.1751L25.311 19.1998L26.4528 18.4385L28.9268 17.4156L32.4 17.3205ZM26.4766 18.272C26.6669 13.657 34.8502 13.4429 35.7542 18.1769L35.0643 17.7962L32.4 17.1777L28.9031 17.2729L26.4766 18.272ZM31.163 3.21387L31.3057 9.63677L31.3566 9.64581C31.9313 9.75809 32.4503 10.2084 32.5427 11.0403L32.8757 11.2068L32.5427 11.5399L32.5903 14.6324L31.7101 14.3945H30.4969L29.6167 14.5848V14.4421L29.7119 11.5636L29.355 11.2782L29.7357 11.1117C29.7357 10.2315 30.3066 9.73193 30.9251 9.66056H30.9013L31.163 3.21387ZM30.3066 12.42C30.3066 12.0632 29.8784 12.1346 29.8546 12.5628L29.8308 14.0377L30.3066 13.8949V12.42ZM32.3048 12.6341C32.3048 12.2773 31.9242 12.0156 31.9004 12.42V13.8711L32.3286 13.9901L32.3048 12.6341ZM31.3295 12.3487C31.3295 11.9918 30.8299 11.9443 30.8061 12.3725L30.7824 13.8473H31.3295V12.3487Z" fill="#262626"/>
<path d="M22.9321 33.3302V33.0447H23.8123V32.7592H24.7401V33.0447H25.6678V32.7592H26.5956V33.0447H27.5233V32.7592H28.4511V33.0447H29.3788V32.7592H30.3304V33.0447H31.2581V32.7592H32.1859V33.0447H33.1136V32.7592H34.0176V33.0447H34.9691V32.7592H35.8731V33.0447H36.8246V32.7592H37.7524V33.0447H38.6564V33.3302H22.9321ZM22.9321 33.3302H22.8846V32.7592H22.9193L22.2423 31.5222H22.9321V29.3575L22.9604 29.3246C23.0592 29.2143 23.1046 29.2088 23.17 29.1434C23.2176 29.0958 22.9797 29.0482 23.0749 28.8817C23.1938 28.6438 22.9559 28.5487 22.9559 28.4535C22.9559 28.3108 23.0987 28.3108 23.1938 28.1681C23.2414 28.0729 23.0749 27.8112 23.2652 27.7874L23.2915 27.798C23.4156 27.8651 23.2918 28.1009 23.3365 28.1681C23.4317 28.3108 23.5744 28.3108 23.5744 28.4535C23.5744 28.5487 23.3365 28.6676 23.4555 28.8817C23.5269 29.0244 23.3128 29.0958 23.3603 29.1434C23.4317 29.2147 23.4793 29.191 23.5982 29.3575H25.644V27.3592L26.096 27.359V27.0262L26.3577 20.1751L26.5004 19.8658L28.8555 19.0808L32.3048 18.9857C32.3048 19.0095 34.9454 19.6042 34.9454 19.6042C34.9454 19.628 35.6828 20.2703 35.6828 20.2703L35.8255 20.5319L36.0365 27.359L36.5154 27.3592V29.3575H38.0141C38.133 29.2147 38.1806 29.2147 38.252 29.1434C38.2995 29.0958 38.0617 29.0482 38.1568 28.8817C38.2757 28.6438 38.0379 28.5487 38.0379 28.4535C38.0379 28.3108 38.1806 28.3108 38.2757 28.1681C38.3233 28.0729 38.1568 27.8112 38.3471 27.7874L38.3734 27.798C38.4975 27.8651 38.3737 28.1009 38.4185 28.1681C38.5136 28.3108 38.6564 28.3108 38.6564 28.4535C38.6564 28.5487 38.4185 28.6676 38.5374 28.8817C38.6088 29.0244 38.3947 29.0958 38.4423 29.1434C38.5136 29.2147 38.5612 29.191 38.6802 29.3575V31.5222H39.37L38.6802 32.783L38.6799 32.8511L38.6802 33.0447H38.6797L38.6564 44.0826H39.822L39.1321 45.3434V47.6509H43.1286C43.2476 47.4844 43.2951 47.4844 43.3665 47.413C43.4141 47.3654 43.2 47.3178 43.2713 47.1513C43.3903 46.9134 43.1524 46.8183 43.1524 46.7231C43.1524 46.5804 43.2951 46.5804 43.3903 46.4377C43.4379 46.3663 43.2713 46.0808 43.4617 46.057L43.4879 46.0676C43.612 46.1347 43.4882 46.3705 43.533 46.4377C43.6282 46.5804 43.7709 46.5804 43.7709 46.7231C43.7709 46.8183 43.533 46.9372 43.652 47.1513C43.7233 47.294 43.5092 47.3654 43.5568 47.413C43.6282 47.5081 43.6757 47.4844 43.7947 47.6509V47.6747H44.5321L43.8423 48.9355V51.7187H17.889V48.9355L17.1991 47.6747H17.889C18.0079 47.5081 18.0555 47.5081 18.1268 47.4368C18.1744 47.3892 17.9603 47.3416 18.0317 47.1751C18.1506 46.9372 17.9128 46.8421 17.9128 46.7469C17.9128 46.6042 18.0555 46.6042 18.1506 46.4614C18.1982 46.3663 18.0317 46.1046 18.222 46.0808L18.2483 46.0914C18.3724 46.1585 18.2486 46.3943 18.2934 46.4614C18.3885 46.6042 18.5313 46.6042 18.5313 46.7469C18.5313 46.8421 18.2934 46.961 18.4123 47.1751C18.4837 47.3178 18.2696 47.3892 18.3172 47.4368C18.3885 47.5081 18.4361 47.4844 18.555 47.6509H22.4802V45.3434L21.7665 44.0826H22.9321V33.3302ZM36.6343 53.2174V53.4553C35.8969 54.4544 35.778 55.4535 35.778 56.3099C35.8017 56.5478 35.7066 56.6667 35.5163 56.6667C35.3022 56.6667 35.207 56.5478 35.207 56.3099C35.207 55.5487 35.4687 54.8112 36.1586 53.8835V53.7883H34.8978C34.7788 53.7883 34.6837 53.8597 34.6361 53.9548H34.4934L34.5647 53.2174H36.6343ZM26.6194 53.2174V56.4051L27.0238 56.4526V56.6429H25.6202V56.4526L26.0246 56.4051V53.7883H25.6202V53.5504C25.8819 53.5266 26.1674 53.4315 26.2863 53.2174H26.6194ZM29.1409 53.1698C29.807 53.1698 30.2114 53.5266 30.2114 53.9311C30.2352 54.2879 29.9735 54.5496 29.6167 54.6685L29.6405 54.7399C30.0211 54.954 30.378 55.2394 30.378 55.6914C30.378 56.2147 29.926 56.6429 29.2123 56.6429C28.4749 56.6429 27.9991 56.2623 27.9991 55.8341C27.9991 55.4535 28.2846 55.1681 28.689 55.0491L28.6652 54.9302C28.3559 54.7399 28.0705 54.4544 28.0705 54.0738C28.0705 53.5742 28.4749 53.1698 29.1409 53.1698ZM32.6379 53.146C33.1612 53.146 33.5418 53.4077 33.5418 53.7407C33.518 53.9786 33.3991 54.0738 33.2564 54.0738C33.1374 54.0738 33.0185 53.9548 32.9947 53.8121C32.9947 53.6932 33.0423 53.598 33.0661 53.4553C32.9947 53.4077 32.9233 53.4077 32.8044 53.4077C32.2335 53.4077 32.0194 54.05 32.0194 55.0967H32.0669C32.1621 54.7161 32.4476 54.5258 32.7568 54.5258C33.3277 54.5258 33.6608 54.954 33.6608 55.4773C33.6608 56.1434 33.185 56.6429 32.4951 56.6429C31.6387 56.6429 31.3057 55.8341 31.3057 55.2156C31.3057 53.931 31.9004 53.146 32.6379 53.146ZM28.9268 55.0729C28.6414 55.2156 28.5224 55.5011 28.5224 55.7866C28.5224 56.1672 28.7128 56.4288 29.2123 56.4288C29.6167 56.4288 29.7594 56.1672 29.7594 55.8341C29.7594 55.4773 29.4026 55.2632 29.0934 55.1443C29.0458 55.1205 28.9744 55.0967 28.9268 55.0729ZM32.5189 54.8588C32.3048 54.8588 32.0907 55.0253 31.9956 55.3346C32.0194 55.8103 32.0907 56.4051 32.5665 56.4051C32.8995 56.4051 32.9947 56.072 32.9947 55.5962C32.9947 55.1443 32.852 54.8588 32.5189 54.8588ZM29.1647 53.3839C28.8317 53.3839 28.7128 53.6218 28.7128 53.9311C28.7128 54.2641 29.022 54.4782 29.2837 54.5733C29.3313 54.5971 29.3788 54.6209 29.4264 54.6447C29.6167 54.502 29.7119 54.2403 29.7119 53.9786C29.7119 53.6456 29.5691 53.3839 29.1647 53.3839ZM66.4176 41.5372L66.4414 41.9654L65.3947 42.0844V48.5548C65.3947 50.7672 63.8009 51.8377 61.5172 51.8377C59.6617 51.8377 57.8775 50.791 57.8775 48.6976V42.0844L56.807 41.9654L56.8308 41.5372L58.496 41.5848L60.2802 41.5372V41.9654L59.2572 42.0844V48.65C59.2572 50.2676 60.3039 51.0288 61.9691 51.0288C63.6343 51.0288 64.7048 50.2438 64.7048 48.5073V42.0844L63.6581 41.9654V41.5372L65.0854 41.5848L66.4176 41.5372ZM116.231 41.3945C117.301 41.3945 118.134 41.9178 118.443 42.2747L118.681 41.5134H119.181V44.2253H118.633C118.419 42.6553 117.42 41.9178 116.278 41.9178C114.994 41.9178 114.399 42.6077 114.399 43.6544C114.399 44.7249 115.684 45.1531 116.921 45.8192C118.705 46.7469 119.585 47.6509 119.585 48.8641C119.585 50.7434 118.134 51.7901 116.492 51.7901C115.351 51.7901 114.542 51.3381 114.018 50.8147L113.781 51.6473H113.352V48.7927L113.923 48.7689C114.161 50.4341 114.851 51.2429 116.469 51.2429C117.658 51.2429 118.419 50.5055 118.419 49.3874C118.419 48.1504 117.063 47.6033 116.064 47.0799C113.947 46.0808 113.329 45.1055 113.329 43.9636C113.329 42.3698 114.851 41.3945 116.231 41.3945ZM107.025 41.561C109.522 41.561 110.855 42.6077 110.855 44.035C110.855 45.4623 109.808 46.0808 108.381 46.3663L108.428 46.6042C110.022 46.6518 110.736 47.6033 110.736 48.7689V49.435C110.736 50.672 110.997 51.1478 111.426 51.1478C111.663 51.1478 111.83 50.9813 111.973 50.6482L112.234 50.8385C111.925 51.4095 111.521 51.7663 110.807 51.7663C109.832 51.7663 109.38 50.8623 109.38 49.4588V48.7689C109.38 47.9125 108.904 46.8421 107.857 46.8421H105.692V51.1478L106.739 51.3143V51.6949L105.05 51.6711L103.266 51.6949V51.3143L104.337 51.1478V42.0844L103.266 41.9654L103.29 41.561H107.025ZM144.016 41.5134V41.9178L143.112 42.1081L140.138 47.4844V51.1478L141.185 51.3381V51.7187L139.472 51.6949L137.736 51.7187V51.3381L138.782 51.1716V47.4844L135.785 42.1081L134.881 41.894V41.5134L136.522 41.5372L138.259 41.5134V41.894L137.355 42.0606V42.2033L139.781 46.7707L142.16 42.2747V42.0844L141.185 41.9178V41.5134L142.826 41.5372L144.016 41.5134ZM124.89 41.561V41.9654L123.867 42.0844V51.124L124.866 51.3143V51.6949L123.201 51.6711L121.417 51.6949V51.3143L122.487 51.1478V42.0844L121.417 41.9654L121.441 41.561L123.201 41.6086L124.89 41.561ZM82.4987 41.561V41.9654L81.4758 42.0844V51.124L82.4749 51.3143V51.6949L80.8097 51.6711L79.0255 51.6949V51.3143L80.096 51.1478V42.0844L79.0255 41.9654L79.0493 41.561L80.8097 41.6086L82.4987 41.561ZM77.6696 41.5372V41.9178L76.6229 42.0844C76.6229 42.0844 76.5078 43.6724 76.504 45.5581L76.5039 51.6711H75.5762L69.4387 43.7496V47.3178C69.4387 49.7681 69.5577 51.124 69.5577 51.124L70.652 51.3143V51.6949L69.1771 51.6711L67.5357 51.6949V51.3143L68.6299 51.1478C68.6299 51.1478 68.7251 49.887 68.7251 47.294V42.8218C68.7251 42.1302 68.2451 42.0479 67.7405 41.973L67.6585 41.9609C67.6175 41.9547 67.5764 41.9484 67.5357 41.9416L67.5594 41.5372L69.6053 41.5848L75.8141 49.7205V45.6051C75.8141 43.702 75.7189 42.1081 75.7189 42.1081L74.4819 41.9178V41.5372L76.0757 41.561L77.6696 41.5372ZM101.006 41.5372L101.054 44.2015H100.507L100.411 43.8685C100.174 42.9645 99.5788 42.1319 98.2229 42.1319H95.9868V46.2949H96.6291C97.652 46.3187 98.4132 46.0333 98.4132 45.2244V44.939H98.8652V48.2218H98.4132V47.9363C98.4132 47.1275 97.6757 46.8421 96.6528 46.8421H96.0106V51.1002H98.6987C99.9832 51.1002 100.84 50.339 101.101 49.4112L101.196 49.0544L101.744 49.0782L101.458 51.6711H95.3683L93.5841 51.6949V51.3143L94.6546 51.1478V42.0844L93.5841 41.9654L93.6079 41.561H101.006V41.5372ZM134.215 41.5372L134.381 44.1777H133.811L133.668 43.7496C133.359 42.8218 132.907 42.1081 131.693 42.1319H130.813V51.1478L131.884 51.2667L131.86 51.6711L130.171 51.6236L128.434 51.6711V51.2667L129.433 51.1478V42.1319H128.458C127.269 42.1081 126.793 42.8218 126.484 43.7496L126.341 44.1777H125.794L125.96 41.5372H134.215ZM92.918 41.5134V41.894L91.9665 42.0844L88.5172 51.6473H87.7797L84.3066 42.0844L83.3313 41.894V41.5134L85.044 41.5372L86.733 41.5134V41.894L85.6863 42.0606L88.4696 49.8632L91.1577 42.0606L90.111 41.894V41.5134L91.6335 41.5372L92.918 41.5134ZM42.9145 48.5548H18.6502L18.9119 48.8403H42.6528L42.9145 48.5548ZM106.929 42.1081H105.692V46.2711H106.62C108.809 46.3187 109.427 45.0817 109.427 44.0588C109.427 43.1311 108.856 42.1081 106.929 42.1081ZM38.4423 45.0579H23.0987L23.2652 45.3434H38.2757L38.4423 45.0579ZM30.9013 35.5425C29.1885 35.5425 27.8088 36.8509 27.8088 38.4923C27.8088 40.1337 29.1885 41.4659 30.9013 41.4421C32.6141 41.4421 33.9938 40.1337 33.9938 38.4923C33.9938 36.8747 32.6141 35.5425 30.9013 35.5425ZM30.8061 36.5416L30.8537 38.302L33.0423 39.4676L30.4731 38.4923L30.8061 36.5416ZM79.4537 21.6262C83.4978 21.6262 86.0432 24.8377 86.0432 29.0482C86.0432 33.2588 83.474 36.4465 79.4537 36.4465C75.4097 36.4465 72.8405 33.2588 72.8405 29.0482C72.8405 24.8377 75.4097 21.6262 79.4537 21.6262ZM124.01 21.8165C127.411 21.8165 129.243 23.2914 129.243 25.361C129.243 27.383 127.816 28.287 125.865 28.6676L125.937 29.0007C128.101 29.072 129.1 30.428 129.1 32.0932V33.0447C129.1 34.8288 129.481 35.4949 130.028 35.4949C130.361 35.4949 130.575 35.257 130.766 34.7813L131.146 35.0429C130.718 35.8518 130.171 36.3513 129.196 36.3513C127.887 36.3513 127.245 35.0667 127.245 33.0447V32.0456C127.245 30.8086 126.603 29.2861 125.152 29.2861H121.655V35.4236L123.129 35.7566V36.3037L120.822 36.2562L118.396 36.3037V35.7566L119.847 35.5425V22.6015L118.372 22.4112L118.396 21.8165H124.01ZM137.403 21.8403C142.018 21.8403 144.682 25.1231 144.682 28.8817C144.682 33.7108 141.518 36.2799 137.403 36.2799H134.5L132.098 36.3275V35.7804L133.525 35.5663V22.6253L132.05 22.435L132.098 21.8403H137.403ZM111.473 21.8165L116.278 35.4949L117.587 35.7566V36.3037L115.255 36.2562L112.9 36.3037V35.7566L114.352 35.5425L113.138 31.9742H107.881C107.144 34.139 106.739 35.5425 106.739 35.5425L108.262 35.7566V36.3037L106.144 36.2562L104.265 36.3037V35.7566L105.478 35.5663C105.478 35.5663 106.359 33.4729 107.191 31.0227L110.379 21.8165H111.473ZM71.3418 21.5548V22.1495L69.9383 22.3399V35.4711L71.3656 35.7328V36.2799L69.0343 36.2324L66.5841 36.2799V35.7328L68.0352 35.4949V29.4526H60.1612V35.4711L61.5885 35.7566V36.3037L59.2572 36.2562L56.7832 36.3037V35.7566L58.2581 35.5187V22.3399L56.7594 22.1495L56.7832 21.5548L59.2097 21.6024L61.5647 21.5548V22.1495L60.1374 22.3399V28.5249H68.0114V22.3399L66.5603 22.1495L66.5841 21.5548L68.9868 21.6024L71.3418 21.5548ZM86.2097 21.8165L88.5647 21.8641L91.1339 21.8403V22.5064L89.5876 22.7205L89.5639 22.9108L92.252 33.1161L95.9392 21.8403H97.1048L101.03 33.1874L103.361 22.887V22.7205L101.529 22.4588V21.8641L103.789 21.9117L105.811 21.8641V22.4826L104.479 22.7681L101.101 36.2799H100.269L96.1295 24.3619L92.1092 36.2799H91.2291V36.2562L87.518 22.7443L86.1859 22.4112L86.2097 21.8165ZM79.4537 22.5302C76.2185 22.5302 75.0766 25.361 75.0766 29.0482C75.0766 32.7355 76.2185 35.5663 79.4537 35.5663C82.689 35.5663 83.8308 32.7592 83.8308 29.0482C83.8308 25.361 82.689 22.5302 79.4537 22.5302ZM137.046 22.6728L135.404 22.6967V35.4473H137.236C141.542 35.5187 142.612 31.8553 142.612 28.9293C142.612 26.1222 141.161 22.6491 137.046 22.6728ZM24.2405 29.7619H23.9788V31.4509H24.2405V29.7619ZM25.0731 29.7619H24.8114V31.4509H25.0731V29.7619ZM25.9057 29.7619H25.644V31.4509H25.9057V29.7619ZM26.7383 29.7619H26.4766V31.4509H26.7383V29.7619ZM27.5709 29.7619H27.3092V31.4509H27.5709V29.7619ZM28.4035 29.7619H28.1418V31.4509H28.4035V29.7619ZM29.2361 29.7619H28.9744V31.4509H29.2361V29.7619ZM30.0687 29.7619H29.807V31.4509H30.0687V29.7619ZM31.7339 29.7619H31.4722V31.4509H31.7339V29.7619ZM32.5665 29.7619H32.3048V31.4509H32.5665V29.7619ZM33.3991 29.7619H33.1374V31.4509H33.3991V29.7619ZM34.2317 29.7619H33.97V31.4509H34.2317V29.7619ZM35.0643 29.7619H34.8026V31.4509H35.0643V29.7619ZM35.8969 29.7619H35.6352V31.4509H35.8969V29.7619ZM37.5621 29.7619H37.3004V31.4509H37.5621V29.7619ZM36.7295 29.7619H36.4678V31.4509H36.7295V29.7619ZM110.522 24.2667L108.238 30.9989H112.805L110.522 24.2667ZM123.985 22.6489L121.702 22.6491V28.5725H123.486C126.484 28.6438 127.316 26.8835 127.316 25.4086C127.316 24.0925 126.55 22.6603 123.985 22.6489ZM36.3013 27.6923H25.7392L25.8581 27.8826H36.2061L36.3013 27.6923ZM28.4749 21.198C28.4749 20.0324 27.0238 20.2227 26.9286 21.7214L26.8335 26.7883L28.4511 26.3363H28.4749V21.198ZM35.207 21.9355C35.207 20.7698 33.9224 19.8183 33.8273 21.2456L33.8511 26.2412L35.326 26.5742L35.207 21.9355ZM31.9956 21.0077C31.9956 19.8421 30.3066 19.6518 30.1876 21.1266L30.0687 26.1698H31.9956V21.0077ZM32.4 17.3205L35.0405 17.9152L35.8017 18.3434V18.3672L36.9436 19.4377L35.8255 20.5081V20.1989L35.0167 19.4614C34.9691 19.4614 32.3286 18.8429 32.3286 18.8429C32.3048 18.8429 28.8317 18.9381 28.8317 18.9381C28.8299 18.9381 28.8137 18.9432 28.7853 18.9525L28.702 18.9804C28.1922 19.1527 26.3545 19.7913 26.3339 19.7707V20.1751L25.311 19.1998L26.4528 18.4385L28.9268 17.4156L32.4 17.3205ZM26.4766 18.272C26.6669 13.657 34.8502 13.4429 35.7542 18.1769L35.0643 17.7962L32.4 17.1777L28.9031 17.2729L26.4766 18.272ZM31.163 3.21387L31.3057 9.63677L31.3566 9.64581C31.9313 9.75809 32.4503 10.2084 32.5427 11.0403L32.8757 11.2068L32.5427 11.5399L32.5903 14.6324L31.7101 14.3945H30.4969L29.6167 14.5848V14.4421L29.7119 11.5636L29.355 11.2782L29.7357 11.1117C29.7357 10.2315 30.3066 9.73193 30.9251 9.66056H30.9013L31.163 3.21387ZM30.3066 12.42C30.3066 12.0632 29.8784 12.1346 29.8546 12.5628L29.8308 14.0377L30.3066 13.8949V12.42ZM32.3048 12.6341C32.3048 12.2773 31.9242 12.0156 31.9004 12.42V13.8711L32.3286 13.9901L32.3048 12.6341ZM31.3295 12.3487C31.3295 11.9918 30.8299 11.9443 30.8061 12.3725L30.7824 13.8473H31.3295V12.3487Z" stroke="#262626" stroke-width="0.232818"/>
</g>
</g>
</g>
<defs>
<clipPath id="clip0_399_221">
<rect width="128" height="54" fill="white" transform="translate(17 3)"/>
</clipPath>
<clipPath id="clip1_399_221">
<rect width="128" height="54" fill="white" transform="translate(17 3)"/>
</clipPath>
<clipPath id="clip2_399_221">
<rect width="127.982" height="54" fill="white" transform="translate(17.0088 3)"/>
</clipPath>
</defs>
</svg>
