<svg width="162" height="52" viewBox="0 0 162 52" fill="none" xmlns="http://www.w3.org/2000/svg">
<g clip-path="url(#clip0_399_213)">
<g clip-path="url(#clip1_399_213)">
<g clip-path="url(#clip2_399_213)">
<path d="M51.9187 33.0117C52.3097 33.0086 52.6957 32.9235 53.0517 32.7619C53.4077 32.6002 53.7258 32.3655 53.9853 32.0731C54.2448 31.7807 54.4401 31.437 54.5583 31.0643C54.6766 30.6916 54.7152 30.2982 54.6717 29.9097V16.1445C54.7152 15.756 54.6766 15.3626 54.5583 14.9899C54.4401 14.6172 54.2448 14.2735 53.9853 13.9811C53.7258 13.6887 53.4077 13.454 53.0517 13.2923C52.6957 13.1306 52.3097 13.0455 51.9187 13.0425C51.5263 13.0461 51.1389 13.1312 50.7811 13.2925C50.4233 13.4538 50.103 13.6877 49.8405 13.9794C49.578 14.2711 49.379 14.6142 49.2561 14.987C49.1333 15.3597 49.0893 15.7539 49.1269 16.1445V29.9097C49.0893 30.3003 49.1333 30.6945 49.2561 31.0672C49.379 31.4399 49.578 31.7831 49.8405 32.0748C50.103 32.3665 50.4233 32.6004 50.7811 32.7617C51.1389 32.923 51.5263 33.0081 51.9187 33.0117ZM23.0701 45.6523H23.4191C24.3109 45.6523 24.5048 45.6523 24.5048 46.3115V46.8156C24.5122 47.1094 24.4566 47.4014 24.3415 47.672C24.2265 47.9425 24.0547 48.1851 23.8379 48.3836C23.621 48.5821 23.3641 48.7317 23.0845 48.8224C22.8049 48.9131 22.5091 48.9428 22.2171 48.9094C21.7449 48.9066 21.2824 48.7752 20.8793 48.5292C20.4762 48.2833 20.1478 47.9321 19.9293 47.5135C19.5842 46.6112 19.4259 45.6482 19.464 44.6829C19.464 42.2789 20.2783 40.4177 22.1783 40.4177C24.0783 40.4177 24.8538 41.9687 25.2803 43.5585H25.7844V39.9136H25.164L24.7762 40.7667C24.1235 40.1645 23.2597 39.8441 22.3722 39.8748C21.7354 39.8888 21.1081 40.0324 20.5286 40.2967C19.9491 40.561 19.4295 40.9405 19.0014 41.4121C18.5733 41.8837 18.2457 42.4376 18.0386 43.0399C17.8315 43.6422 17.7492 44.2804 17.7967 44.9156C17.7655 46.0965 18.1809 47.2458 18.96 48.1339C19.3521 48.5688 19.8303 48.9174 20.3643 49.1577C20.8983 49.398 21.4764 49.5247 22.062 49.5298C22.5749 49.5413 23.0841 49.4395 23.5533 49.2318C24.0224 49.024 24.44 48.7154 24.7762 48.3278L25.3191 49.5298H25.7456V46.1564C25.7456 45.8462 25.7456 45.6911 26.2884 45.6911H27.1415V45.1095H23.0701V45.6523ZM29.7006 48.2502V39.8748H27.2966V40.4177H27.917C28.3435 40.4177 28.5374 40.4177 28.5374 40.7667V48.1339C28.5374 48.5604 28.3435 48.7155 27.8394 48.7155H27.4517V49.5298H30.7476V49.0257H30.3986C29.8945 48.8319 29.7006 48.6768 29.7006 48.2502ZM20.4722 32.9341C20.8628 32.936 21.2495 32.8558 21.6072 32.6989C21.9649 32.5419 22.2857 32.3116 22.5488 32.0229C22.812 31.7342 23.0116 31.3935 23.1348 31.0228C23.2579 30.6521 23.302 30.2597 23.264 29.8709V16.067C23.302 15.6782 23.2579 15.2858 23.1348 14.9151C23.0116 14.5444 22.812 14.2037 22.5488 13.915C22.2857 13.6262 21.9649 13.396 21.6072 13.239C21.2495 13.0821 20.8628 13.0019 20.4722 13.0038C20.0848 13.0073 19.7025 13.0914 19.3494 13.2508C18.9963 13.4101 18.6802 13.6412 18.4213 13.9293C18.1624 14.2174 17.9662 14.5562 17.8453 14.9243C17.7245 15.2923 17.6815 15.6814 17.7192 16.067V29.8709C17.6815 30.2564 17.7245 30.6456 17.8453 31.0136C17.9662 31.3816 18.1624 31.7205 18.4213 32.0086C18.6802 32.2967 18.9963 32.5278 19.3494 32.6871C19.7025 32.8464 20.0848 32.9306 20.4722 32.9341ZM34.1985 43.1707C33.8007 43.1791 33.409 43.2702 33.0482 43.4381C32.6875 43.6061 32.3656 43.8472 32.1031 44.1462C31.8405 44.4452 31.643 44.7956 31.5232 45.175C31.4033 45.5545 31.3636 45.9547 31.4067 46.3503C31.3604 46.7419 31.3974 47.1389 31.5156 47.5151C31.6337 47.8913 31.8302 48.2383 32.0922 48.5331C32.3541 48.8278 32.6755 49.0638 33.0352 49.2254C33.3949 49.387 33.7848 49.4705 34.1792 49.4705C34.5735 49.4705 34.9634 49.387 35.3231 49.2254C35.6828 49.0638 36.0042 48.8278 36.2662 48.5331C36.5281 48.2383 36.7246 47.8913 36.8427 47.5151C36.9609 47.1389 36.998 46.7419 36.9516 46.3503C37.0005 45.9568 36.9663 45.5574 36.851 45.178C36.7358 44.7986 36.5421 44.4477 36.2826 44.1479C36.023 43.8481 35.7034 43.6062 35.3444 43.4379C34.9854 43.2696 34.595 43.1785 34.1985 43.1707ZM34.1985 49.0257C33.3843 49.0257 32.7251 48.4053 32.7251 46.3503C32.7251 44.2952 33.3843 43.7136 34.1985 43.7136C35.0128 43.7136 35.672 44.334 35.672 46.3503C35.672 48.3666 35.0128 49.0257 34.1985 49.0257ZM41.3331 43.1707C40.9698 43.17 40.6135 43.2714 40.305 43.4633C39.9965 43.6553 39.7481 43.9301 39.5883 44.2564V39.8748H37.4169V40.4177H37.8046C38.2311 40.4177 38.425 40.4177 38.425 40.7667V47.2033C38.4225 47.946 38.3445 48.6865 38.1924 49.4135H38.6577L39.2781 48.3666C39.4905 48.6958 39.7838 48.965 40.1301 49.1483C40.4764 49.3316 40.8639 49.4229 41.2556 49.4135C41.6579 49.4148 42.0561 49.3326 42.425 49.1721C42.7939 49.0116 43.1255 48.7764 43.3988 48.4812C43.6721 48.186 43.8812 47.8373 44.0129 47.4572C44.1445 47.077 44.1959 46.6737 44.1637 46.2727C44.2017 45.8788 44.1566 45.4814 44.0315 45.106C43.9063 44.7306 43.7038 44.3856 43.4371 44.0933C43.1704 43.801 42.8453 43.5679 42.4829 43.409C42.1205 43.25 41.7288 43.1689 41.3331 43.1707ZM41.1005 48.9482C40.1699 48.9482 39.5495 48.1727 39.5495 46.4278C39.5495 44.6829 40.1699 43.8299 41.1005 43.8299C42.0311 43.8299 42.6515 44.6054 42.6515 46.4278C42.6515 48.2502 42.0311 48.9482 41.1005 48.9482ZM132.803 3.42633C132.495 3.22432 132.148 3.08738 131.784 3.02389C131.421 2.96039 131.048 2.97168 130.689 3.05704C130.33 3.14241 129.993 3.30008 129.697 3.5204C129.401 3.74073 129.153 4.01909 128.968 4.33848C128.783 4.65786 128.665 5.01157 128.622 5.37798C128.579 5.74439 128.61 6.11582 128.715 6.46957C128.82 6.82331 128.996 7.15195 129.232 7.43539C129.469 7.71884 129.76 7.95114 130.089 8.11811C132.708 9.61855 134.883 11.7838 136.397 14.3949C137.91 17.006 138.707 19.9704 138.707 22.9883C138.707 26.0062 137.91 28.9706 136.397 31.5817C134.883 34.1928 132.708 36.3581 130.089 37.8585C129.508 38.2385 129.095 38.8266 128.935 39.5019C128.774 40.1771 128.878 40.8882 129.226 41.489C129.573 42.0898 130.138 42.5346 130.803 42.732C131.469 42.9294 132.184 42.8644 132.803 42.5503C136.243 40.5721 139.1 37.7222 141.086 34.2878C143.073 30.8533 144.119 26.9559 144.119 22.9883C144.119 19.0207 143.073 15.1233 141.086 11.6889C139.1 8.25448 136.243 5.40452 132.803 3.42633ZM53.8962 48.2502V39.8748H51.4922V40.4177H51.9187C52.3452 40.4177 52.5391 40.4177 52.5391 40.7667V48.1339C52.5391 48.5604 52.5391 48.7155 51.8412 48.7155H51.6473V49.5298H54.9432V49.0257H54.5554C54.0513 48.8319 53.8962 48.6768 53.8962 48.2502ZM50.484 48.6768C50.2126 48.6768 50.0187 48.3278 50.0187 48.0951V45.1482C50.0187 43.7911 49.282 43.1707 47.6535 43.1707C46.0249 43.1707 45.1331 43.9462 45.1331 44.7605C45.1224 44.8604 45.1323 44.9614 45.162 45.0573C45.1918 45.1532 45.2409 45.242 45.3063 45.3183C45.3716 45.3946 45.4519 45.4566 45.5422 45.5008C45.6324 45.5449 45.7307 45.57 45.831 45.5748C45.9221 45.5865 46.0147 45.5778 46.1021 45.5494C46.1894 45.521 46.2694 45.4735 46.3361 45.4105C46.4029 45.3474 46.4548 45.2703 46.4882 45.1847C46.5216 45.0991 46.5355 45.0072 46.529 44.9156C46.529 44.6442 46.2576 44.334 46.2576 44.2176C46.2576 44.1013 46.5678 43.7523 47.4596 43.7523C48.3514 43.7523 48.8167 44.1401 48.8167 44.9544V45.6523C46.3351 46.0013 44.9392 46.7768 44.9392 48.0176C44.9392 49.2584 45.7923 49.5298 46.7229 49.5298C47.1643 49.5408 47.6026 49.4524 48.0053 49.2712C48.408 49.0899 48.7648 48.8205 49.0494 48.4829C49.0788 48.7641 49.2169 49.0228 49.4341 49.2038C49.6514 49.3849 49.9307 49.474 50.2126 49.4523C50.4488 49.464 50.6829 49.4035 50.8838 49.2788C51.0847 49.1541 51.2428 48.9711 51.3371 48.7543V48.5217C51.3371 48.5217 50.833 48.6768 50.484 48.6768ZM48.8555 47.2033C48.8556 47.4256 48.8112 47.6456 48.725 47.8504C48.6388 48.0553 48.5125 48.2409 48.3535 48.3962C48.1946 48.5515 48.0062 48.6735 47.7994 48.755C47.5926 48.8365 47.3716 48.8758 47.1494 48.8706C47.0138 48.8812 46.8775 48.8642 46.7487 48.8207C46.6199 48.7772 46.5012 48.7081 46.3998 48.6175C46.2983 48.527 46.2163 48.4168 46.1585 48.2937C46.1008 48.1706 46.0685 48.0371 46.0637 47.9013C46.0637 46.9319 46.6453 46.4666 48.8555 46.1564V47.2033ZM42.2637 13.0425C41.6879 13.0449 41.1298 13.2414 40.6795 13.6003C40.2291 13.9591 39.913 14.4593 39.7821 15.0201L36.1761 24.9465L32.5312 15.0201C32.4004 14.4593 32.0842 13.9591 31.6339 13.6003C31.1836 13.2414 30.6254 13.0449 30.0496 13.0425C29.679 13.0156 29.3069 13.0661 28.9569 13.1908C28.6069 13.3156 28.2867 13.512 28.0168 13.7673C27.7468 14.0226 27.533 14.3314 27.389 14.674C27.245 15.0165 27.1739 15.3853 27.1803 15.7568C27.1842 16.3178 27.303 16.872 27.5292 17.3853L33.1904 30.6852C33.8496 32.1586 34.3149 33.0117 36.1761 33.0117C38.0373 33.0117 38.5413 32.1586 39.2005 30.6852L44.7841 17.3853C45.0104 16.872 45.1291 16.3178 45.1331 15.7568C45.1395 15.3853 45.0684 15.0165 44.9243 14.674C44.7803 14.3314 44.5665 14.0226 44.2966 13.7673C44.0267 13.512 43.7065 13.3156 43.3565 13.1908C43.0065 13.0661 42.6343 13.0156 42.2637 13.0425Z" fill="#262626"/>
<path d="M76.1531 30.6077C75.9205 31.073 75.649 31.3444 75.3001 31.3444C74.9511 31.3444 73.9429 29.6383 73.0899 26.2649C72.8802 25.3235 72.3272 24.494 71.5389 23.9384C70.7213 23.4426 69.8318 23.0764 68.9022 22.8527C69.8849 22.797 70.8593 22.641 71.8103 22.3874C72.642 22.1514 73.4017 21.7116 74.0205 21.1078C74.4171 20.6984 74.725 20.2117 74.9252 19.678C75.1253 19.1443 75.2133 18.575 75.1837 18.0058C75.1887 17.3603 75.0484 16.7219 74.7732 16.138C74.498 15.554 74.095 15.0395 73.594 14.6324C72.2529 13.6762 70.6236 13.2107 68.9797 13.314H58.7819V14.3222H60.7207C61.061 14.2848 61.4038 14.367 61.69 14.5548C61.8039 14.6467 61.8922 14.7662 61.9465 14.902C62.0009 15.0378 62.0194 15.1853 62.0002 15.3303V30.9567C62.0002 31.5771 61.5737 31.8873 60.7207 31.8873H58.7819V32.9342H67.9716V31.8873H65.8777C65.1798 31.8873 64.8308 31.5771 64.8308 30.9567V23.2017H66.4206C67.0956 23.1188 67.7805 23.2148 68.4067 23.4803C69.0328 23.7457 69.5781 24.1711 69.9879 24.7139C70.6543 26.0734 70.9487 27.5852 70.8409 29.0955C70.7678 30.1477 71.07 31.1919 71.694 32.0424C71.9748 32.3845 72.3309 32.657 72.7345 32.8386C73.1381 33.0202 73.5782 33.106 74.0205 33.0893C76.2694 33.0893 77.3939 31.5771 77.3939 28.5138H76.4633C76.4871 29.2248 76.382 29.9342 76.1531 30.6077ZM64.8308 22.3874V15.1365C64.8256 15.0161 64.8448 14.896 64.8872 14.7833C64.9297 14.6705 64.9946 14.5676 65.0779 14.4806C65.1613 14.3937 65.2614 14.3245 65.3722 14.2773C65.483 14.23 65.6022 14.2058 65.7226 14.2059H67.1185C68.3626 14.1036 69.613 14.3031 70.7634 14.7875C71.2669 15.1994 71.6586 15.7314 71.9026 16.3345C72.1465 16.9376 72.2348 17.5923 72.1593 18.2385C72.2008 18.803 72.1181 19.3698 71.9171 19.899C71.7162 20.4282 71.4018 20.907 70.996 21.3017C69.8495 22.052 68.4833 22.3935 67.1185 22.2711L64.8308 22.3874ZM123.769 31.8873C123.403 31.9324 123.032 31.8487 122.721 31.6507C122.41 31.4526 122.177 31.1524 122.063 30.8016L114.928 12.7324H113.959L107.328 29.4832C106.669 31.1118 105.738 31.8873 104.498 31.8873V32.9342H111.632V31.8873H110.973C110.363 31.9136 109.758 31.7656 109.228 31.4607C109.041 31.3535 108.883 31.2019 108.768 31.0194C108.653 30.8369 108.585 30.6289 108.569 30.4138C108.531 30.1437 108.531 29.8697 108.569 29.5995C108.634 29.3202 108.725 29.0476 108.84 28.7853L109.655 26.2649H117.41L119.038 30.4914C119.073 30.6445 119.073 30.8035 119.038 30.9567C119.038 31.4995 118.34 31.7709 116.944 31.7709H116.324V32.8179H124.079V31.8873H123.769ZM110.081 25.3343L113.61 16.5711L117.061 25.3343H110.081ZM91.0039 28.7465L85.1101 13.2365H78.5184V14.2446H80.4959C81.2714 14.2446 81.6592 14.5548 81.6592 15.1752V28.7465C81.7496 29.6203 81.4996 30.4952 80.9612 31.1893C80.2619 31.7172 79.3911 31.966 78.5184 31.8873V32.9342H86.002V31.8873C85.1167 31.9721 84.2317 31.7232 83.5204 31.1893C82.9985 30.4308 82.7901 29.5 82.9387 28.5914V14.2446L89.9958 32.9342H90.6937L97.2467 14.1671V30.9567C97.245 31.0879 97.2166 31.2175 97.1633 31.3375C97.1099 31.4575 97.0328 31.5654 96.9365 31.6546C96.6827 31.8177 96.3849 31.8989 96.0835 31.8873H94.1447V32.9342H103.179V31.8873H101.434C100.504 31.8873 100.077 31.5771 100.077 30.9567V15.4467C100.077 14.7099 100.426 14.3222 101.163 14.3222H103.179V13.1589H96.4712L91.0039 28.7465Z" fill="#262626"/>
</g>
</g>
</g>
<defs>
<clipPath id="clip0_399_213">
<rect width="128" height="46.53" fill="white" transform="translate(17 3)"/>
</clipPath>
<clipPath id="clip1_399_213">
<rect width="128" height="46.53" fill="white" transform="translate(17 3)"/>
</clipPath>
<clipPath id="clip2_399_213">
<rect width="127.957" height="46.53" fill="white" transform="translate(17.0212 3)"/>
</clipPath>
</defs>
</svg>
