<svg width="76" height="76" viewBox="0 0 76 76" fill="none" xmlns="http://www.w3.org/2000/svg">
<g filter="url(#filter0_d_399_269)">
<ellipse cx="38.0238" cy="34" rx="29.9772" ry="30" fill="#254A76"/>
</g>
<path d="M34.2204 42.9496C33.9569 42.6859 33.8089 42.3283 33.8089 41.9554C33.8089 41.5825 33.9569 41.2249 34.2204 40.9612L41.1766 34.0002L34.2204 27.0393C33.9644 26.7741 33.8227 26.4188 33.8259 26.0501C33.8291 25.6814 33.9769 25.3287 34.2375 25.068C34.498 24.8072 34.8505 24.6594 35.219 24.6562C35.5874 24.6529 35.9424 24.7947 36.2075 25.0508L44.1573 33.006C44.4207 33.2697 44.5687 33.6273 44.5687 34.0002C44.5687 34.3731 44.4207 34.7307 44.1573 34.9944L36.2075 42.9496C35.9439 43.2132 35.5866 43.3613 35.2139 43.3613C34.8413 43.3613 34.4839 43.2132 34.2204 42.9496Z" fill="white"/>
<defs>
<filter id="filter0_d_399_269" x="0.0466309" y="0" width="75.9543" height="76" filterUnits="userSpaceOnUse" color-interpolation-filters="sRGB">
<feFlood flood-opacity="0" result="BackgroundImageFix"/>
<feColorMatrix in="SourceAlpha" type="matrix" values="0 0 0 0 0 0 0 0 0 0 0 0 0 0 0 0 0 0 127 0" result="hardAlpha"/>
<feOffset dy="4"/>
<feGaussianBlur stdDeviation="4"/>
<feComposite in2="hardAlpha" operator="out"/>
<feColorMatrix type="matrix" values="0 0 0 0 0 0 0 0 0 0 0 0 0 0 0 0 0 0 0.25 0"/>
<feBlend mode="normal" in2="BackgroundImageFix" result="effect1_dropShadow_399_269"/>
<feBlend mode="normal" in="SourceGraphic" in2="effect1_dropShadow_399_269" result="shape"/>
</filter>
</defs>
</svg>
