<svg width="162" height="16" viewBox="0 0 162 16" fill="none" xmlns="http://www.w3.org/2000/svg">
<g clip-path="url(#clip0_399_228)">
<g clip-path="url(#clip1_399_228)">
<g clip-path="url(#clip2_399_228)">
<path opacity="0.5" d="M108.767 14.4975C108.767 14.5871 108.723 14.6318 108.634 14.6318H106.786C106.653 14.6318 106.653 14.4975 106.653 14.4975V1.96025C106.653 1.82588 106.786 1.82588 106.786 1.82588H108.634C108.768 1.82588 108.767 1.96025 108.767 1.96025V14.4975ZM120.507 12.6296C120.595 12.6296 120.64 12.6745 120.64 12.764V14.3631C120.64 14.4975 120.507 14.4975 120.507 14.4975H114.431C114.298 14.4975 114.298 14.3631 114.298 14.3631V1.96025C114.298 1.82588 114.431 1.82588 114.431 1.82588H116.279C116.412 1.82588 116.412 1.96025 116.412 1.96025V12.6296H120.507ZM131.595 12.6296C131.683 12.6296 131.728 12.6745 131.728 12.764V14.3631C131.728 14.4975 131.595 14.4975 131.595 14.4975H125.386C125.253 14.4975 125.253 14.3631 125.253 14.3631V1.96025C125.253 1.82588 125.386 1.82588 125.386 1.82588H127.234C127.367 1.82588 127.367 1.96025 127.367 1.96025V12.6296H131.595ZM135.823 13.0328L136.74 11.4337C136.829 11.3441 136.917 11.3441 137.005 11.4337C137.405 11.8369 138.854 12.6296 140.569 12.6296C141.884 12.6296 142.815 12.0921 142.815 11.0306C142.815 10.2243 142.284 9.70027 140.169 9.29711C137.272 8.75964 135.942 7.5637 135.809 5.42713C135.676 3.1562 137.524 1.55713 140.422 1.55713C142.536 1.55713 143.986 2.48431 144.384 2.75307C144.517 2.75307 144.517 2.88745 144.384 3.02182L143.6 4.75526C143.6 4.88963 143.467 4.88963 143.334 4.75526C142.935 4.48651 141.884 3.69369 140.302 3.69369C138.987 3.69369 138.056 4.36557 138.056 5.15838C138.056 6.08558 138.72 6.4887 140.689 6.89182C143.467 7.5637 144.916 8.49089 144.916 10.7618C144.916 13.0328 143.201 14.6318 140.302 14.6318C137.923 14.6318 136.208 13.4359 135.809 13.0328C135.809 13.1672 135.809 13.3015 135.809 13.0328H135.823ZM99.7936 7.5637C100.591 7.0262 101.11 6.09901 101.11 5.15838C101.11 3.02182 99.5275 1.82588 97.0149 1.82588H93.0529C92.9201 1.82588 92.9201 1.96025 92.9201 2.09463V14.4975C92.9201 14.6318 93.053 14.6318 93.1859 14.6318H97.6796C100.325 14.6318 102.04 13.0328 102.04 10.7618C102.04 9.20308 101.056 8.06089 99.7936 7.5637ZM97.4137 12.6296H95.0339V3.96245H96.8819C98.1981 3.96245 98.9958 4.49995 98.9958 5.42713C98.9958 6.35433 98.464 7.0262 97.1478 7.0262H96.483L96.8819 8.62526H97.7992C99.1154 8.62526 99.9133 9.43155 99.9133 10.493C99.9133 11.9443 98.8629 12.6296 97.4004 12.6296H97.4137Z" fill="#262626"/>
<path d="M40.287 1.69141H38.439C38.439 1.69141 38.3061 1.69141 38.3061 1.82578V7.0261H32.8951V1.82578C32.8951 1.82578 32.8951 1.69141 32.7621 1.69141H30.9141C30.9141 1.69141 30.7812 1.69141 30.7812 1.82578V14.363C30.7812 14.363 30.7812 14.4974 30.9141 14.4974H32.7621C32.7621 14.4974 32.8951 14.4974 32.8951 14.363V9.02829H38.3061V14.363C38.3061 14.363 38.3061 14.4974 38.439 14.4974H40.287C40.287 14.4974 40.4199 14.4974 40.4199 14.363V1.82578C40.4199 1.82578 40.4199 1.69141 40.287 1.69141Z" fill="#262626"/>
<path d="M22.459 1.69141H17.9786C17.8457 1.69141 17.8457 1.82578 17.8457 1.96015V14.363C17.8457 14.4973 17.9786 14.4973 18.1116 14.4973H19.9596C20.0925 14.4973 20.2255 14.363 20.2255 14.363V3.69359H22.4723C23.6555 3.69359 24.5862 4.2311 24.5862 5.56142C24.3203 6.89172 23.4029 7.42923 22.2064 7.42923H21.4619V9.56579H22.4723C24.985 9.56579 26.5671 7.96673 26.5671 5.56142C26.5538 3.29047 24.9717 1.69141 22.459 1.69141Z" fill="#262626"/>
<path d="M51.6278 1.69141H49.7798C49.6468 1.69141 49.5139 1.69141 49.5139 1.82578L44.7677 14.2286C44.7677 14.363 44.7677 14.4974 44.9006 14.4974H46.7486C46.7486 14.4974 46.8815 14.4974 46.8815 14.363L48.1977 11.0305H53.2099L54.5261 14.363C54.5261 14.4526 54.5704 14.4974 54.659 14.4974H56.507C56.64 14.4974 56.64 14.363 56.64 14.2286L51.8937 1.82578C51.8937 1.69141 51.7607 1.69141 51.6278 1.69141ZM48.8625 9.16266L50.7105 4.36547L52.5584 9.16266H48.8625Z" fill="#262626"/>
<path d="M87.1396 1.6915H85.1588C85.0258 1.6915 84.8928 1.6915 84.8928 1.82588L80.798 10.3587L76.5702 1.82588C76.5702 1.6915 76.4373 1.6915 76.1715 1.55713H74.3235C74.1905 1.55713 74.0576 1.6915 74.0576 1.82588V14.2287C74.0576 14.3631 74.1905 14.4975 74.3235 14.4975H76.1715C76.1715 14.4975 76.3043 14.4975 76.3043 14.3631V6.09901L79.6015 12.4953C79.6901 12.5848 79.7787 12.6296 79.8674 12.6296H81.5824C81.7154 12.6296 81.8483 12.6296 81.8483 12.4953L85.1454 5.96464V14.3631C85.1454 14.3631 85.1455 14.4975 85.2783 14.4975H87.1263C87.1263 14.4975 87.2593 14.4975 87.2593 14.3631V1.82588C87.2593 1.82588 87.2593 1.6915 87.1263 1.6915H87.1396Z" fill="#262626"/>
<path d="M66.8097 9.29703C68.6577 8.89392 69.708 7.42923 69.708 5.56141C69.708 3.29047 68.1259 1.69141 65.6132 1.69141H61.1196C61.1196 1.69141 60.9866 1.69141 60.9866 1.82578V14.363C60.9866 14.363 60.9866 14.4974 61.1196 14.4974H62.9676C62.9676 14.4974 63.1005 14.4974 63.1005 14.363V9.43139H64.6826L67.4479 14.363C67.4479 14.4526 67.4923 14.4974 67.5809 14.4974H69.6947C69.8277 14.4974 69.9606 14.363 69.8277 14.2286L66.7965 9.29703H66.8097ZM63.1138 7.42923V3.6936H65.6265C66.5438 3.6936 67.4745 4.2311 67.4745 5.56141C67.4745 6.89173 66.5571 7.42923 65.6265 7.42923H63.1138Z" fill="#262626"/>
</g>
</g>
</g>
<defs>
<clipPath id="clip0_399_228">
<rect width="128" height="14.03" fill="white" transform="translate(17 1)"/>
</clipPath>
<clipPath id="clip1_399_228">
<rect width="128" height="14.03" fill="white" transform="translate(17 1)"/>
</clipPath>
<clipPath id="clip2_399_228">
<rect width="127.921" height="14.03" fill="white" transform="translate(17.0397 1)"/>
</clipPath>
</defs>
</svg>
