<svg width="76" height="76" viewBox="0 0 76 76" fill="none" xmlns="http://www.w3.org/2000/svg">
<g filter="url(#filter0_d_399_264)">
<ellipse cx="37.9772" cy="34" rx="29.9772" ry="30" fill="#254A76"/>
</g>
<path d="M41.7806 25.0504C42.044 25.3141 42.192 25.6717 42.192 26.0446C42.192 26.4175 42.044 26.7751 41.7806 27.0388L34.8243 33.9998L41.7806 40.9607C42.0366 41.2259 42.1782 41.5812 42.175 41.9499C42.1718 42.3186 42.024 42.6713 41.7635 42.932C41.5029 43.1928 41.1504 43.3406 40.782 43.3439C40.4135 43.3471 40.0585 43.2053 39.7935 42.9492L31.8437 34.994C31.5803 34.7303 31.4323 34.3727 31.4323 33.9998C31.4323 33.6269 31.5803 33.2693 31.8437 33.0056L39.7935 25.0504C40.057 24.7868 40.4144 24.6387 40.787 24.6387C41.1597 24.6387 41.517 24.7868 41.7806 25.0504Z" fill="white"/>
<defs>
<filter id="filter0_d_399_264" x="0" y="0" width="75.9543" height="76" filterUnits="userSpaceOnUse" color-interpolation-filters="sRGB">
<feFlood flood-opacity="0" result="BackgroundImageFix"/>
<feColorMatrix in="SourceAlpha" type="matrix" values="0 0 0 0 0 0 0 0 0 0 0 0 0 0 0 0 0 0 127 0" result="hardAlpha"/>
<feOffset dy="4"/>
<feGaussianBlur stdDeviation="4"/>
<feComposite in2="hardAlpha" operator="out"/>
<feColorMatrix type="matrix" values="0 0 0 0 0 0 0 0 0 0 0 0 0 0 0 0 0 0 0.25 0"/>
<feBlend mode="normal" in2="BackgroundImageFix" result="effect1_dropShadow_399_264"/>
<feBlend mode="normal" in="SourceGraphic" in2="effect1_dropShadow_399_264" result="shape"/>
</filter>
</defs>
</svg>
